<svg width="31" height="30" fill="none" xmlns="http://www.w3.org/2000/svg"><path d="M.002 1.071A1.071 1.071 0 011.073 0h.939c1.557 0 2.453 1.013 2.971 2.025.354.692.609 1.536.82 2.268H27.86a2.142 2.142 0 012.06 2.726l-3.204 11.3a4.285 4.285 0 01-4.122 3.114H11.712a4.285 4.285 0 01-4.134-3.156L6.202 13.23a1.093 1.093 0 01-.021-.068L3.972 5.67l-.214-.722c-.214-.741-.403-1.397-.686-1.947-.34-.665-.653-.857-1.062-.857h-.94A1.071 1.071 0 010 1.073l.002-.002zm8.244 11.513l1.4 5.134a2.142 2.142 0 002.066 1.576h10.884a2.142 2.142 0 002.059-1.557L27.86 6.436H6.436l1.81 6.146v.002zm6.76 14.202a3.214 3.214 0 11-6.428 0 3.214 3.214 0 016.427 0zm-2.143 0a1.071 1.071 0 10-2.143 0 1.071 1.071 0 002.143 0zm12.854 0a3.214 3.214 0 11-6.428 0 3.214 3.214 0 016.428 0zm-2.142 0a1.071 1.071 0 10-2.143 0 1.071 1.071 0 002.143 0z" fill="#fff"/></svg>