<svg width="27" height="24" fill="none" xmlns="http://www.w3.org/2000/svg"><path d="M26.65 3.73c-.156.556-.554.853-1.067 1.076-1.132.494-2.148 1.164-2.948 2.123-.916 1.096-1.382 2.39-1.598 3.781-.089.57-.125 1.148-.188 1.758h3.945c.911.002 1.436.525 1.437 1.437v8.143c0 .921-.53 1.448-1.457 1.448-2.706.002-5.412.002-8.117 0-.93 0-1.457-.524-1.456-1.448 0-2.393-.013-4.786.01-7.18.018-1.986.15-3.965.59-5.912.53-2.352 1.735-4.304 3.483-5.937C20.59 1.8 22.087.874 23.721.163c.732-.319 1.425-.081 1.773.63.398.817.772 1.645 1.156 2.468v.468zM5.717 12.468h.317c1.205 0 2.411-.003 3.617.001.844.003 1.38.54 1.38 1.388.004 2.75.005 5.499 0 8.249 0 .842-.538 1.386-1.385 1.388-2.75.006-5.499.006-8.249 0C.536 23.493.004 22.95.004 22.09c0-2.48-.015-4.962.013-7.442.021-1.822.177-3.633.545-5.425.495-2.416 1.664-4.44 3.441-6.133C5.344 1.81 6.885.846 8.583.126c.71-.3 1.386-.053 1.73.637.35.706.69 1.417 1.018 2.134.335.735.064 1.448-.685 1.789-.889.403-1.733.872-2.474 1.514-1.174 1.017-1.832 2.328-2.18 3.815a10.337 10.337 0 00-.275 2.453z" fill="#fff"/></svg>