<svg width="16" height="17" fill="#fff" xmlns="http://www.w3.org/2000/svg"><g clip-path="url(#clip0_10_4470)"><path d="M6.239 9.907h-.343c-.493 0-.987.004-1.48-.001-.295-.004-.393-.09-.395-.371a114.85 114.85 0 010-2.274c.003-.28.107-.367.397-.369.536-.003 1.071 0 1.607 0h.214v-.23c.013-.685-.012-1.374.046-2.055.146-1.716 1.464-2.957 3.187-3.022.722-.027 1.444-.011 2.166-.01.24.001.342.104.344.344.004.715.004 1.431 0 2.147-.002.244-.102.341-.362.348-.487.011-.975.012-1.462.019-.566.008-.789.222-.799.788-.01.534-.002 1.069-.002 1.623.075.003.139.009.202.009h1.859c.404.001.492.088.493.484v2.13c-.001.333-.084.417-.417.418-.638.003-1.275.001-1.913.001h-.223v5.89c0 .507-.06.565-.573.565H6.71c-.383 0-.47-.087-.47-.464l-.001-5.722v-.248z"/></g><defs><clipPath id="clip0_10_4470"><path transform="translate(0 .955)" d="M0 0h16v16H0z"/></clipPath></defs></svg>