<svg width="127" height="102" fill="none" xmlns="http://www.w3.org/2000/svg"><path d="M0 44.693c10.51 0 10.51-15.277 21.023-15.277 10.514 0 10.514 15.277 21.026 15.277 10.517 0 10.517-15.277 21.034-15.277 10.515 0 10.515 15.277 21.027 15.277 10.522 0 10.522-15.277 21.043-15.277 10.521 0 10.521 15.277 21.042 15.277M0 17.277C10.51 17.277 10.51 2 21.023 2c10.514 0 10.514 15.277 21.026 15.277C52.566 17.277 52.566 2 63.083 2 73.598 2 73.598 17.277 84.11 17.277 94.632 17.277 94.632 2 105.153 2c10.521 0 10.521 15.277 21.042 15.277M0 72.108c10.51 0 10.51-15.277 21.023-15.277 10.514 0 10.514 15.277 21.026 15.277 10.517 0 10.517-15.277 21.034-15.277 10.515 0 10.515 15.277 21.027 15.277 10.522 0 10.522-15.277 21.043-15.277 10.521 0 10.521 15.277 21.042 15.277M0 99.524c10.51 0 10.51-15.277 21.023-15.277 10.514 0 10.514 15.277 21.026 15.277 10.517 0 10.517-15.277 21.034-15.277 10.515 0 10.515 15.277 21.027 15.277 10.522 0 10.522-15.277 21.043-15.277 10.521 0 10.521 15.277 21.042 15.277" opacity=".6" stroke="#fff" stroke-width="3" stroke-miterlimit="10"/></svg>