<svg width="16" height="16" fill="#fff" xmlns="http://www.w3.org/2000/svg"><path d="M5.67 5.316h3.162v1.436c.044-.023.066-.027.073-.04.706-1.133 1.761-1.625 3.064-1.655.729-.017 1.441.074 2.108.393.864.412 1.349 1.13 1.617 2.019.216.715.29 1.452.295 2.193.014 2.052.01 4.104.011 6.157 0 .031-.004.063-.008.107h-3.31v-.218c-.002-1.741.004-3.482-.008-5.222a6.802 6.802 0 00-.105-1.18c-.201-1.093-.913-1.461-1.928-1.342-.926.108-1.437.649-1.581 1.649a8.017 8.017 0 00-.079 1.105c-.008 1.663-.003 3.326-.003 4.989v.246H5.669V5.316zM.273 15.955V5.32h3.295v10.636H.273zM3.838 1.91c.006 1.059-.854 1.936-1.904 1.942C.88 3.858 0 2.979 0 1.918 0 .873.86.009 1.908 0a1.92 1.92 0 011.93 1.91z"/></svg>