<svg width="16" height="16" fill="#fff" xmlns="http://www.w3.org/2000/svg"><path d="M3.911 7.99a4.089 4.089 0 108.178 0c-.224-5.437-7.953-5.439-8.178 0zm1.259 0a2.83 2.83 0 115.66 0c-.154 3.763-5.496 3.765-5.66 0z" fill="none"/><path d="M12.25 0h-8.5A3.753 3.753 0 000 3.75v8.5A3.753 3.753 0 003.75 16h8.5A3.753 3.753 0 0016 12.25v-8.5A3.753 3.753 0 0012.25 0zm2.506 12.25a2.503 2.503 0 01-2.505 2.505H3.749a2.503 2.503 0 01-2.505-2.505v-8.5A2.503 2.503 0 013.75 1.243h8.502a2.503 2.503 0 012.505 2.505v8.502z" fill="none"/><path d="M12.445 2.845a.712.712 0 100 1.423.712.712 0 000-1.423z" fill="none"/></svg>