<svg width="72" height="72" fill="none" xmlns="http://www.w3.org/2000/svg"><path d="M72 8.379A8.376 8.376 0 0063.621 0H8.38A8.376 8.376 0 000 8.379V63.62A8.376 8.376 0 008.379 72H63.62A8.376 8.376 0 0072 63.621V8.38zm-8.378 59.889H28.925V39.725a1.861 1.861 0 00-1.863-1.861h-13.34a1.862 1.862 0 100 3.724H25.2v26.69H8.378a4.652 4.652 0 01-4.655-4.654v-44.38h18.685a1.862 1.862 0 100-3.723H3.724V8.38a4.652 4.652 0 014.654-4.655h55.243a4.652 4.652 0 014.655 4.654v19.243H49.713V11.795a1.862 1.862 0 00-3.723 0v15.827H32.649a1.862 1.862 0 100 3.724h35.627v17.38h-21.97a1.862 1.862 0 00-1.862 1.863v10.669a1.862 1.862 0 103.723 0V52.45h20.11v11.171a4.652 4.652 0 01-4.656 4.655v-.009z" fill="#4A8780"/></svg>