<svg width="72" height="72" fill="none" xmlns="http://www.w3.org/2000/svg"><path d="M4.803 13.996c-1.089.188-2.073.352-3.055.53-1.156.21-1.737-.253-1.742-1.424a679.34 679.34 0 010-5.57c.003-.95.326-1.328 1.245-1.49C12.688 4.03 24.12 1.989 35.57.05c1.104-.187 2.317.212 3.468.413C49.422 2.27 59.803 4.099 70.186 5.915c1.63.285 1.811.484 1.811 2.174 0 1.679.008 3.357-.002 5.036-.007 1.128-.598 1.604-1.695 1.412-6.887-1.208-13.775-2.413-20.663-3.62-.099-.017-.196-.041-.294-.062-.949-.2-1.396-.719-1.26-1.462.14-.76.732-1.095 1.672-.93l19.116 3.344c.216.038.436.046.692.071V8.316c-1.001-.184-2.021-.378-3.043-.558-9.814-1.726-19.631-3.434-29.439-5.192-1.34-.24-2.58.12-3.843.338-7.997 1.38-15.989 2.8-23.982 4.206-2.091.367-4.182.737-6.276 1.082-.416.068-.604.202-.587.67.034.986.01 1.975.01 3.062 1.497-.256 2.917-.493 4.335-.742 9.177-1.608 18.355-3.206 27.527-4.845 1.177-.21 2.304-.234 3.478.001 2.277.456 4.574.813 6.86 1.23.804.147 1.245.755 1.104 1.437-.145.7-.764 1.085-1.548.948-2.56-.445-5.116-.906-7.679-1.331-.405-.068-.842-.035-1.25.037-9.251 1.616-18.5 3.245-27.748 4.873-.07.012-.14.039-.243.069v24.146h3.563v-4.474c0-.458-.007-.916.002-1.374.017-.885.495-1.434 1.224-1.416.704.016 1.165.544 1.17 1.395.011 1.704.004 3.408.004 5.113v.776h2.4V20.016c0-.178.008-.357-.006-.534-.057-.724-.547-1.214-1.2-1.21-.656.004-1.17.493-1.184 1.221-.027 1.424-.01 2.85-.01 4.274 0 .966.011 1.933-.004 2.9-.014.833-.5 1.366-1.204 1.361-.703-.005-1.184-.538-1.188-1.376-.01-2.417-.026-4.834.006-7.25.027-1.992 1.63-3.566 3.567-3.576 1.972-.01 3.569 1.573 3.617 3.608.021.914.003 1.83.003 2.879 1.606-1.492 3.367-2.056 5.353-1.261 1.965.786 2.907 2.375 3.087 4.54h.824c3.574 0 7.149-.001 10.723.001 1.227.001 1.612.392 1.613 1.64.002 3.484 0 6.967 0 10.51h13.15v-8.462c-.953-.106-2.236.294-2.33-1.29-.05-.84.498-1.1 2.324-1.21v-8.466h-4.744v15.261c0 .254.023.516-.028.76-.129.618-.518.978-1.145 1.014-.592.034-1.108-.414-1.205-1.033-.035-.224-.021-.457-.021-.686V17.53c0-1.344.36-1.705 1.697-1.706H60.72c1.32 0 1.677.37 1.677 1.728v20.985c0 1.341-.365 1.707-1.698 1.707H7.202v30.142c-.006 1.03-.433 1.599-1.199 1.6-.77 0-1.2-.564-1.2-1.597V13.996zm32.363 14.092H18.063v4.79h19.103v-4.79zm18.05-1.307c.966.11 2.276-.28 2.334 1.17.067 1.632-1.368 1.21-2.29 1.334v8.474h4.687V18.327h-4.732v8.454zM32.4 35.414H18.063v2.349h14.31c.01-.158.025-.28.026-.4.002-.633.001-1.265.001-1.95zm-8.421-9.85c-.148-1.524-1.197-2.49-2.528-2.409-1.254.077-2.2 1.105-2.19 2.41h4.718zm10.837 12.19h2.33v-2.331h-2.33v2.33z" fill="#4A8780"/><path d="M34.769 62.223v-2.442H12.497c-1.332 0-1.692-.365-1.694-1.71-.001-1.399-.028-2.798.02-4.195.011-.37.155-.87.417-1.067.4-.301.379-.58.28-.964-.226-.885-.454-1.77-.66-2.659-.175-.761.156-1.4.793-1.586.68-.2 1.32.185 1.526.97.297 1.127.548 2.267.845 3.395.047.182.233.325.355.486.165-.144.412-.256.481-.438.28-.733.495-1.49.754-2.232.275-.79.9-1.15 1.551-.925.675.234.963.88.725 1.67-.198.654-.415 1.301-.635 1.987.668.376.778.989.755 1.694-.032.987-.008 1.977.046 3.003.746-2.427 2.276-4.008 4.749-4.654 0-.484-.015-.965.002-1.444.068-1.923 1.57-3.497 3.457-3.528a251.48 251.48 0 017.421-.004c1.928.026 3.463 1.593 3.505 3.556.034 1.626.133 3.267-.02 4.879-.22 2.316.185 4.61.045 6.917-.083 1.356-.374 1.729-1.688 1.733h-.901l-.723 4.357c-.104.627-.193 1.255-.311 1.879-.131.687-.547 1.072-1.246 1.085-.724.014-1.45.014-2.174.002-.835-.014-1.234-.357-1.376-1.194-.305-1.803-.597-3.607-.896-5.41-.037-.223-.086-.444-.134-.688h-7.54c-.19 1.128-.382 2.268-.572 3.41-.15.9-.29 1.804-.449 2.704-.141.801-.536 1.158-1.317 1.177-.724.017-1.45.017-2.174 0-.781-.019-1.179-.374-1.315-1.178-.306-1.802-.597-3.606-.896-5.41-.036-.223-.083-.444-.139-.737-.467 0-.912.021-1.355-.004-.715-.042-1.196-.542-1.2-1.207-.005-.666.475-1.166 1.186-1.221.223-.018.45-.006.674-.006H34.77zm-9.558-4.885c2.836 0 5.558.009 8.28-.005.807-.004 1.288-.463 1.3-1.256.024-1.6.022-3.202 0-4.803-.01-.738-.453-1.238-1.15-1.246a368.275 368.275 0 00-7.267-.002c-.66.006-1.131.422-1.146 1.082-.046 2.05-.017 4.103-.017 6.23zm-11.973-.042h2.316v-2.343h-2.316v2.343zm2.581 7.41l.83 4.865.329-.022.793-4.843H15.82zm14.401-.014l.815 4.868.336-.002.802-4.866H30.22zm-7.475-7.386v-2.173c-1.034.45-1.695 1.12-2.11 2.173h2.11zM45.6 50.068v2.485l-.001 17.62c0 .254.025.515-.022.76-.125.656-.53 1.05-1.192 1.042-.66-.009-1.055-.41-1.168-1.069-.038-.222-.017-.456-.017-.685v-20.9c0-1.399.347-1.75 1.727-1.75h14.616c1.279 0 1.654.38 1.655 1.672v21.053c0 .228.02.465-.029.683-.139.615-.528.993-1.156.996-.662.004-1.068-.383-1.192-1.04-.047-.245-.022-.506-.022-.76V50.067h-13.2zm21.598-5.931l-.001 26.02c0 .255.025.515-.02.762-.118.657-.517 1.056-1.18 1.056-.661 0-1.06-.397-1.18-1.055-.04-.222-.019-.456-.019-.685v-52.27c0-.254-.026-.518.03-.76.144-.612.532-.977 1.169-.976.636 0 1.03.36 1.168.975.06.268.031.557.031.836.002 8.7.002 17.398.002 26.097zM35.999 21.93c-1.9 0-3.8.004-5.7-.003-1.075-.003-1.494-.43-1.496-1.526-.006-2.238-.006-4.477 0-6.715.002-1.096.42-1.522 1.498-1.523 3.8-.005 7.599-.005 11.398 0 1.076 0 1.496.429 1.499 1.524.006 2.239.006 4.477 0 6.715-.003 1.094-.425 1.522-1.5 1.525-1.9.007-3.8.002-5.7.002zm-4.745-7.293v4.79h3.507v-4.79h-3.507zm5.98 4.797h3.507v-4.791h-3.507v4.79z" fill="#4A8780"/><path d="M56.392 58.585c-.014.66-.572 1.205-1.22 1.19-.65-.015-1.181-.58-1.167-1.241.014-.664.567-1.204 1.218-1.19.65.015 1.183.58 1.169 1.24zm-26.4-6.124c.65-.005 1.197.543 1.202 1.206.005.66-.536 1.22-1.186 1.224-.65.005-1.196-.545-1.2-1.207a1.21 1.21 0 011.184-1.223z" fill="#4A8780"/></svg>