<svg width="89" height="177" fill="none" xmlns="http://www.w3.org/2000/svg"><path d="M49.79 176.437c0-14.695 13.315-14.695 13.315-29.392 0-14.701-13.315-14.701-13.315-29.399 0-14.703 13.315-14.703 13.315-29.407 0-14.701-13.315-14.701-13.315-29.399 0-14.71 13.315-14.71 13.315-29.42S49.79 14.71 49.79 0m23.895 176.437c0-14.695 13.315-14.695 13.315-29.392 0-14.701-13.315-14.701-13.315-29.399C73.685 102.943 87 102.943 87 88.239c0-14.701-13.315-14.701-13.315-29.399C73.685 44.13 87 44.13 87 29.42S73.685 14.71 73.685 0m-47.79 176.437c0-14.695 13.315-14.695 13.315-29.392 0-14.701-13.315-14.701-13.315-29.399 0-14.703 13.315-14.703 13.315-29.407 0-14.701-13.315-14.701-13.315-29.399 0-14.71 13.315-14.71 13.315-29.42S25.895 14.71 25.895 0M2 176.437c0-14.695 13.315-14.695 13.315-29.392C15.315 132.344 2 132.344 2 117.646c0-14.703 13.315-14.703 13.315-29.407C15.315 73.538 2 73.538 2 58.84c0-14.71 13.315-14.71 13.315-29.42S2 14.71 2 0" opacity=".6" stroke="#fff" stroke-width="3" stroke-miterlimit="10"/></svg>