<svg width="72" height="72" fill="none" xmlns="http://www.w3.org/2000/svg"><path d="M57.5 0c.511.326.883.744.658 1.39-.221.64-.767.725-1.373.725-17.9-.007-35.8-.006-53.7-.006H2.15v67.72h67.682V32.446H67.33v2.008c-.005 1.721-.859 2.596-2.592 2.6-4.264.01-8.528.004-12.792.004h-.877v2.545h13.516c1.936.002 2.744.804 2.745 2.718v22.285c0 1.909-.827 2.732-2.741 2.732H37.67c-1.915 0-2.732-.815-2.734-2.734-.003-2.672 0-5.343 0-8.015v-.87h-2.56v.791c0 2.742.003 5.484-.001 8.225-.003 1.747-.849 2.602-2.574 2.602-7.52.002-15.041.002-22.562 0-1.715 0-2.587-.878-2.588-2.602-.002-7.522-.002-15.044 0-22.566 0-1.687.857-2.562 2.544-2.563 7.545-.006 15.089-.006 22.633 0 1.709.001 2.538.843 2.548 2.543.003.674 0 1.348 0 2.068h2.56c0-.414.023-.825-.005-1.232-.168-2.491.641-3.58 3.415-3.386.389.027.781.004 1.215.004v-2.546c-.7 0-1.371.007-2.042-.001-1.737-.02-2.57-.862-2.584-2.603-.018-2.27-.018-2.27-2.559-2.008 0 .646.002 1.313 0 1.98-.006 1.79-.825 2.614-2.616 2.631-.351.003-.705.016-1.054-.018-.678-.067-1.054-.485-1.027-1.098.025-.58.406-.94 1.064-.984.257-.018.516-.002.773-.009.228-.005.456-.02.752-.034 0-1.112-.006-2.163.001-3.214.008-1.086.346-1.418 1.446-1.422 1.335-.005 2.671-.009 4.006.002.96.008 1.307.358 1.321 1.326.014.914.023 1.828-.004 2.741-.013.457.143.623.604.61a65.378 65.378 0 012.811-.004c.877.014 1.243.366 1.255 1.245.018 1.406.016 2.812 0 4.218-.01.91-.382 1.287-1.288 1.303-1.095.019-2.19.005-3.375.005 0 1.103.004 2.126 0 3.15-.006 1.176-.334 1.504-1.505 1.507-1.312.004-2.624.01-3.936-.002-.942-.009-1.321-.387-1.333-1.33-.014-1.073-.003-2.147-.003-3.272H18.415v8.755c0 2.058-.768 2.818-2.85 2.819H6.81v11.82h10.647c0-.748.002-1.49 0-2.232-.004-.769.264-1.401.85-1.924.178-.158.301-.46.315-.704.045-.841-.01-1.688.047-2.529.163-2.417 2.18-4.243 4.6-4.205 2.4.038 4.359 1.968 4.44 4.38.013.422.003.844.009 1.265.012.818-.137 1.627.706 2.264.338.254.4.966.452 1.483.073.716.018 1.444.018 2.214h1.326c.015-.246.045-.513.045-.781.003-3.093.001-6.186.003-9.28 0-1.236.308-1.544 1.527-1.545 1.265-.002 2.53-.002 3.795 0 1.124.002 1.452.328 1.453 1.472.005 3.093.002 6.186.002 9.28v.86h18.811V41.714h-2.39c-1.102 0-2.203.012-3.304-.005-.874-.014-1.237-.386-1.243-1.253-.01-1.359-.005-2.718-.002-4.077.002-1.106.313-1.427 1.413-1.427 4.662-.004 9.325-.002 13.987-.002h.904c0-1.16-.004-2.232.001-3.303.005-1.009.342-1.36 1.342-1.367 1.359-.01 2.718-.01 4.077 0 .987.008 1.338.374 1.338 1.38.002 12.63.002 25.26 0 37.89 0 1.544-.901 2.439-2.452 2.44-22.352.001-44.703-.003-67.055.01C1.215 72 .478 71.374 0 70.303V1.688A2.925 2.925 0 011.687 0h55.814zm7.676 60.537V46.422h-7.095v14.115h7.095zM6.8 41.754v9.427h9.457v-9.416h-3.66c0 .702.004 1.353-.002 2.004-.008.947-.375 1.424-1.077 1.413-.679-.011-1.02-.464-1.029-1.38-.006-.674 0-1.346 0-2.048h-3.69zm18.803 18.781c0-.874.024-1.71-.006-2.543-.043-1.17-.931-2.123-2.086-2.29-1.131-.163-2.375.521-2.605 1.648-.208 1.025-.144 2.105-.202 3.185h4.899zm1.126 4.674v-2.474h-7.106v2.474h7.106zm31.314-20.991h7.12v-2.443h-7.12v2.443zm7.153 18.509h-7.124v2.444h7.124v-2.444z" fill="#4A8780"/><path d="M70.294 0C71.552.527 72.01 1.464 72 2.826c-.044 6.233-.019 12.466-.02 18.699 0 1.246-.291 1.543-1.515 1.545-1.312.002-2.624.005-3.936-.002-.952-.005-1.305-.36-1.305-1.323-.004-4.686-.002-9.373-.002-14.06V6.81h-4.896c0 .778.007 1.543-.002 2.308-.017 1.398-.885 2.288-2.281 2.292-3.843.012-7.685.012-11.527 0-1.355-.005-2.228-.897-2.25-2.251-.012-.768-.002-1.537-.002-2.352h-7.218v.847l-.001 13.779c0 1.38-.26 1.636-1.64 1.637h-3.514c-1.357 0-1.623-.272-1.623-1.66V6.814h-2.55v.842l-.001 19.823c0 1.765-.82 2.593-2.567 2.594-4.428.002-8.856.002-13.284 0-1.691-.002-2.56-.864-2.56-2.55-.003-6.607-.002-13.215-.002-19.823v-.89h-2.5v28.14h17.15c1.077 0 1.593.34 1.595 1.043.001.704-.53 1.065-1.589 1.065-5.53.002-11.059.004-16.588 0-1.912-.002-2.721-.827-2.721-2.752V7.382c0-1.912.822-2.73 2.74-2.73h22.282c1.885 0 2.702.81 2.703 2.683.002 4.241 0 8.483 0 12.724v.864h2.522c.013-.271.036-.54.036-.808.002-4.241 0-8.483.002-12.724.001-1.926.813-2.74 2.727-2.74h26.92c1.922 0 2.747.819 2.747 2.726v13.536h2.5V2.14c-.23-.01-.475-.03-.721-.03-2.437-.002-4.873-.007-7.31.003-.593.002-1.135-.05-1.385-.701-.255-.663.152-1.047.6-1.412h9.281zM11.452 27.916h14.125v-11.79H11.452v11.79zM25.567 13.93V6.76h-2.503c0 .836.006 1.581 0 2.326-.015 1.436-.884 2.313-2.324 2.325-1.405.012-2.81.006-4.216.003-1.718-.004-2.548-.825-2.558-2.531-.004-.691 0-1.383 0-2.084h-2.507v7.13h14.108zm32.62-7.125H46.425V9.26h11.762V6.805zm-37.262.012h-4.807v2.444h4.807V6.817z" fill="#4A8780"/><path d="M52.301 25.414c-2.6 0-5.199.003-7.799 0-1.735-.003-2.586-.857-2.588-2.591-.003-2.132-.006-4.263 0-6.395.006-1.554.884-2.455 2.433-2.458 5.293-.01 10.586-.009 15.88 0 1.56.003 2.44.89 2.447 2.444.01 2.179.009 4.357 0 6.535-.006 1.582-.897 2.459-2.503 2.463-2.623.007-5.247.002-7.87.002zm-8.227-9.297v7.131h16.44v-7.132h-2.498c0 .757.008 1.476-.002 2.195-.022 1.532-.87 2.418-2.383 2.431-2.223.02-4.446.02-6.669 0-1.506-.012-2.373-.91-2.39-2.425-.009-.72-.002-1.44-.002-2.2h-2.496zm11.833 2.49c0-.7-.025-1.326.008-1.95.026-.474-.165-.593-.61-.59-2.032.02-4.063.008-6.094.012-.156 0-.312.041-.47.064v2.465h7.166zm4.667 31.343c-.006-1.13.279-1.578 1.007-1.596.756-.018 1.097.48 1.094 1.604 0 .256.016.52-.038.767-.126.575-.502.91-1.098.864-.587-.047-.925-.406-.963-1.008-.013-.21-.002-.42-.002-.63zm-.005 7.024c0-.164-.005-.328.001-.49.03-.718.425-1.151 1.044-1.148.586.002 1.006.422 1.055 1.085.024.325.018.654.004.98-.033.735-.488 1.22-1.1 1.194-.601-.026-.98-.478-1.004-1.2-.005-.14 0-.281 0-.421z" fill="#4A8780"/></svg>