<svg width="72" height="72" fill="none" xmlns="http://www.w3.org/2000/svg"><path d="M69.6 53.24h-8.128v12.99H69.6v-1.363c-.002-.552.16-1.006.802-1.008.629-.002.82.422.817.99-.006 1.778.004 3.556-.005 5.335-.004.708-.271.965-.97.99-.187.007-.374.002-.561.002l-49.198-.001c-.28 0-.617.084-.827-.04-.28-.165-.63-.494-.635-.758-.005-.26.338-.609.615-.766.234-.133.593-.057.896-.057 16.025-.002 32.05-.002 48.074-.002h.942v-1.6H2.666v1.6h.864c3.58 0 7.159 0 10.738.002.256 0 .576-.069.755.055.27.186.615.52.606.78-.01.264-.388.54-.647.759-.098.082-.317.026-.48.027-4.094 0-8.188.002-12.282 0C1.194 71.174 1 70.978 1 69.94V44.671c.001-1.053.217-1.27 1.272-1.273 1.561-.004 3.122-.001 4.867-.001-1.53-1.707-1.213-3.669-1.235-5.566-.007-.637.31-.95.946-.944.094 0 .19-.015.28.001 1.8.314 3.224-.27 4.273-1.769.066-.094.162-.168.246-.25.506-.488.994-.564 1.339-.174.448.507.232.95-.2 1.334-.255.226-.535.424-.805.635l.153.222c.832 0 1.664-.007 2.495.002.797.009 1.05.251 1.06 1.052.012.818.1 1.657-.045 2.45-.183 1.007-.567 1.977-.864 2.962h9.295l-.295-3.175c-.595-.116-1.564.17-1.529-.894.032-.951.926-.705 1.503-.817.043-.062.089-.098.092-.137.117-1.443.117-1.443 1.593-1.443h6.878c1.151 0 1.28.124 1.349 1.265.005.09.027.18.047.306.622.143 1.601-.152 1.537.94-.054.923-.884.69-1.492.768l-.326 3.192h5.12c0-.995-.01-1.968.003-2.94.01-.822.282-1.097 1.103-1.099 3.626-.006 7.252-.006 10.878 0 .699.001 1.098.314 1.063.835-.044.665-.5.827-1.081.818-.697-.01-1.393-.002-2.173-.002v2.385h18.739c.016-.169.049-.347.049-.525.003-2.152-.006-4.305.007-6.457.004-.58-.125-1.044-.78-1.12-.524-.062-.842.375-.857 1.117-.008.445.008.89-.016 1.333-.027.497-.307.79-.809.781-.497-.009-.776-.302-.787-.802a24.142 24.142 0 01.007-1.825c.066-1.167.993-2.102 2.156-2.215 1.222-.119 2.315.602 2.613 1.756.086.335.112.693.114 1.04.01 2.036.005 4.071.005 6.107v.853c.493 0 .93-.01 1.365.002.791.023 1.06.283 1.061 1.059.005 5.568 0 11.137.005 16.705 0 .564-.172.999-.8 1.009-.636.01-.82-.434-.82-.992v-7.94zm-19.636-8.138h-27.71v21.129h3.227v-.858c0-4.188-.002-8.376.001-12.564.001-.964.225-1.22 1.115-1.222 6.34-.006 12.679-.005 19.018 0 .869.001 1.115.261 1.119 1.147.008 1.684.003 3.369.002 5.053 0 .117.003.236-.014.35-.072.477-.337.796-.831.782-.486-.013-.764-.322-.792-.814-.018-.327-.006-.655-.006-.983v-3.867h-17.93v9.716H45.1c0-.58-.092-1.137.035-1.64.074-.293.478-.657.77-.694.236-.03.588.34.774.612.124.18.055.498.056.754.004 1.397.002 2.794.002 4.228h3.227V45.102zM20.548 66.23v-9.69H2.657v9.69h17.891zm-.021-11.411V45.09H2.664v9.727h17.863zm49.016-3.266v-6.466h-17.85v6.466h17.85zm-9.802 14.72V53.25h-8.056v13.02h8.056zm-27.717-27.71h-6.512c0 1.168-.052 2.286.016 3.397.053.857.686 1.402 1.539 1.424 1.119.03 2.24.03 3.36.002.905-.022 1.55-.634 1.587-1.539.043-1.07.01-2.144.01-3.283zM7.57 38.556c0 .716-.071 1.394.014 2.053a3.152 3.152 0 003.031 2.781c1.657.068 3.034-.952 3.345-2.578.137-.72.093-1.474.133-2.255H7.57zm37.5 26.166h-17.9v1.495h17.903v-1.495zm-4.884-23.72c0 .49-.008.928.002 1.367.015.747.272 1.017 1.008 1.024 1.143.012 2.287 0 3.431.005 1.988.007 2.208.266 2.086-2.247-.002-.04-.042-.08-.082-.15h-6.445zm-4.093-11.478H23.538c-1.12-.001-1.316-.199-1.318-1.298-.002-.795.025-1.59-.01-2.384-.023-.544.178-.922.579-1.274 2.09-1.835 4.157-3.7 6.252-5.53.386-.338.542-.682.54-1.2-.019-5.168-.012-10.336-.01-15.504 0-1.224.16-1.387 1.36-1.387 3.507-.001 7.014-.002 10.521 0 .975.001 1.193.216 1.194 1.203.004 5.215.01 10.43-.01 15.644-.001.538.154.905.561 1.26 2.027 1.767 4.017 3.577 6.047 5.34.538.467.826.955.767 1.689-.059.743-.01 1.495-.014 2.243-.004.957-.236 1.195-1.208 1.196-4.232.005-8.464.002-12.696.002zm10.728-4.896l.07-.177c-.129-.098-.265-.186-.385-.293-1.626-1.444-3.237-2.906-4.884-4.327-.453-.39-.62-.805-.617-1.392.017-5.006.01-10.01.01-15.016v-.805h-9.812v.813c0 4.327-.12 8.659.052 12.98.083 2.094-.437 3.582-2.171 4.801-1.342.944-2.486 2.168-3.837 3.373.387.02.611.041.835.042 1.356.003 2.713-.006 4.07.006.704.006 1.09.323 1.038.848-.06.623-.489.776-1.045.773-1.73-.009-3.461-.003-5.192-.003h-1.03v1.605h24.375v-1.605H35.004c-.233 0-.536.074-.685-.041-.262-.203-.574-.518-.592-.803-.014-.235.329-.556.588-.72.188-.12.5-.057.756-.057 3.671-.002 7.343-.002 11.015-.002h.735z" fill="#4A8780"/><path d="M13.25.946h10.945c1.103.001 1.285.173 1.285 1.242.002 5.707.002 11.415 0 17.122 0 1.038-.189 1.228-1.234 1.228-7.344.003-14.688.003-22.032 0-1.026 0-1.213-.2-1.213-1.248V2.168C1 1.14 1.196.948 2.234.948 5.906.944 9.578.945 13.249.945zm10.589 17.931V2.62h-9.734v16.257h9.734zM12.385 2.632H2.674v16.227h9.711V2.632zM58.958.946h11.016c1.047.001 1.242.192 1.243 1.213.001 5.73.002 11.461 0 17.192 0 .976-.209 1.186-1.206 1.186-7.367.004-14.734.004-22.101 0-.96 0-1.17-.21-1.17-1.148-.004-5.778-.005-11.555 0-17.333 0-.892.226-1.107 1.133-1.108 3.695-.004 7.39-.002 11.085-.002zm-10.57 1.672V18.86h9.719V2.62h-9.719zm11.458-.003V18.87h9.708V2.615h-9.708zm4.026 57.115c0 .305.103.665-.026.897-.166.298-.519.679-.79.678-.27-.001-.71-.391-.773-.678a4.15 4.15 0 01-.004-1.736c.065-.298.452-.666.757-.738.464-.11.771.26.833.738.036.275.007.56.007.84h-.004zm-27.768-4.874c1.542 0 3.084.01 4.626-.005.589-.006 1.073.156 1.078.808.005.655-.49.823-1.07.822a3034.92 3034.92 0 00-9.251 0c-.578 0-1.04-.155-1.088-.815-.037-.51.374-.805 1.08-.808 1.541-.005 3.084-.001 4.625-.002zm6.568-8.977a2.438 2.438 0 012.416 2.467c-.017 1.335-1.147 2.44-2.479 2.424-1.328-.016-2.442-1.161-2.418-2.485a2.446 2.446 0 012.481-2.406zm-.871 2.58c.194.168.442.536.765.624.462.125.806-.188.856-.688.051-.498-.203-.817-.7-.867-.494-.05-.79.208-.921.931zm-14.674-.144a2.438 2.438 0 012.447-2.436 2.446 2.446 0 012.451 2.436c0 1.33-1.117 2.45-2.452 2.456-1.324.007-2.45-1.124-2.446-2.456zm2.405-.808c-.457.07-.767.31-.745.824.021.499.314.788.808.775.492-.013.775-.312.767-.813-.008-.512-.326-.74-.83-.786zm9.008.786a2.452 2.452 0 01-2.43 2.476c-1.309.01-2.415-1.08-2.436-2.399-.022-1.38 1.032-2.477 2.396-2.49 1.38-.015 2.46 1.039 2.47 2.413zm-2.277-.894h-.32c-.217.3-.563.58-.617.907-.074.45.258.789.75.803.529.015.882-.32.812-.809-.047-.324-.406-.602-.625-.901zm-24.68 14.788c-.535 0-1.072.012-1.607-.005-.495-.016-.794-.302-.803-.788-.01-.49.292-.794.782-.805a86.606 86.606 0 013.284-.004c.488.008.806.301.804.788-.001.518-.323.805-.852.813-.536.008-1.072.002-1.608.001zm0-13.061c.537 0 1.074-.016 1.61.005.515.02.85.299.85.825.001.495-.33.79-.802.802-1.096.03-2.194.032-3.289-.004-.47-.015-.79-.317-.78-.819.01-.495.32-.773.802-.8.535-.029 1.073-.006 1.61-.006v-.003zm49.036-.006c-.28 0-.562.016-.84-.005-.491-.037-.78-.313-.783-.809-.004-.467.278-.755.729-.785.58-.04 1.168-.043 1.748-.004.484.033.776.335.747.838-.03.498-.342.745-.83.764-.257.01-.514.002-.771.001zm-1.638 10.618c0 .233.006.467 0 .7-.016.541-.246.912-.831.914-.553.002-.786-.361-.81-.862-.024-.49-.019-.982-.002-1.472.018-.507.266-.878.797-.887.565-.01.828.359.844.906.008.233.002.467.002.7z" fill="#4A8780"/><path d="M16.485 10.79c-.001.28.022.562-.006.838-.048.46-.323.721-.788.72-.464 0-.76-.258-.787-.719-.033-.58-.092-1.182.025-1.74.062-.297.437-.672.734-.741.458-.108.778.237.818.733.024.301.004.606.004.909zm-6.491-.108c0-.28-.099-.617.023-.826.174-.298.49-.66.781-.694.23-.028.69.363.739.626.113.608.072 1.253.03 1.88-.03.462-.354.701-.816.68-.464-.023-.723-.298-.757-.757-.021-.302-.004-.606-.004-.91h.004zm45.742.058c0-.303-.101-.662.026-.895.163-.298.495-.654.785-.684.232-.023.683.372.732.637.11.609.11 1.265 0 1.875-.047.262-.447.582-.74.65-.437.102-.746-.212-.797-.675-.032-.3-.006-.605-.006-.908zm6.487-.002c0 .303.03.61-.007.909-.056.455-.361.778-.8.676-.292-.068-.688-.385-.74-.649a4.767 4.767 0 01-.008-1.803c.057-.29.452-.661.75-.724.46-.096.77.255.806.752.02.278.004.56.004.839h-.005z" fill="#4A8780"/></svg>