<svg width="112" height="19" fill="none" xmlns="http://www.w3.org/2000/svg"><path d="M18.655 6.36l-5.535-.589L10.764.707c-.117-.353-.589-.589-.942-.589s-.825.236-.943.59L6.524 5.77l-5.536.59c-.47 0-.706.353-.942.706-.117.353 0 .825.236 1.06l4.123 3.77-1.179 5.535c-.117.353.118.825.471 1.06.236.235.472.353.59.353.235 0 .353 0 .47-.117L9.704 15.9l4.829 2.826a.906.906 0 001.178-.117c.353-.236.47-.706.47-1.06l-1.177-5.536 4.123-3.769c.353-.236.47-.706.235-1.06 0-.471-.353-.707-.706-.825zm22.968 0l-5.536-.589L33.73.707c-.117-.353-.589-.589-.942-.589-.47 0-.825.236-.942.59L29.49 5.77l-5.535.59c-.471 0-.707.353-.943.706-.117.353 0 .825.236 1.06l4.123 3.77-1.178 5.535c-.118.353.117.825.47 1.06.236.117.354.235.59.235.235 0 .353 0 .47-.117l4.947-2.827 4.83 2.827a.906.906 0 001.177-.117c.354-.236.471-.707.471-1.06l-1.178-5.536 4.123-3.77c.353-.235.47-.706.236-1.06.118-.353-.235-.59-.707-.707zm23.32.118h-.118L59.29 5.89 56.934.825C56.7.235 56.344 0 55.874 0c-.471 0-.825.236-.943.59l-2.355 5.063-5.536.59c-.47 0-.706.353-.942.706-.118.353 0 .825.236 1.06l4.122 3.769-1.178 5.536c-.117.353.118.825.471 1.06.236.117.353.235.589.235s.353 0 .47-.117l4.948-2.827 4.829 2.827a.906.906 0 001.178-.118c.353-.235.47-.706.47-1.06l-1.177-5.535 4.24-3.535c.236-.235.354-.47.354-.824 0-.471-.236-.824-.707-.942zm22.849-.118l-5.535-.589L79.9.707c-.117-.353-.589-.589-.942-.589-.47 0-.825.236-.943.59L75.661 5.77l-5.535.59c-.59 0-.943.47-.943 1.06 0 .353.118.588.353.824l4.123 3.77-1.178 5.535c-.117.354.118.825.47 1.06.237.117.354.236.59.236s.353 0 .47-.118l4.947-2.827 4.83 2.827a.906.906 0 001.178-.117c.353-.236.47-.707.47-1.06l-1.178-5.536 4.123-3.769c.353-.236.47-.707.236-1.06 0-.472-.354-.708-.824-.826zm24.027.825c-.117-.353-.47-.707-.942-.707l-5.536-.706-2.355-5.064c-.118-.354-.589-.59-.942-.59-.471 0-.825.236-.943.59l-2.355 5.064-5.536.589c-.47 0-.706.353-.942.706-.118.354 0 .825.236 1.06l4.122 3.77-1.178 5.535c-.117.354.118.825.47 1.06.237.118.354.236.59.236s.353 0 .47-.118l4.948-2.826 4.829 2.826a.906.906 0 001.178-.117c.353-.236.471-.706.471-1.06l-1.179-5.535 4.123-3.77c.472-.118.589-.59.472-.943h-.001z" fill="#4A8780"/></svg>