<svg width="16" height="17" viewBox="0 0 16 17" fill="#fff" xmlns="http://www.w3.org/2000/svg">
<g clip-path="url(#clip0_10_4470)">
<path d="M6.239 9.90747C6.10993 9.90747 6.00296 9.90747 5.89599 9.90747C5.40261 9.90731 4.90923 9.91102 4.41601 9.9057C4.1214 9.90247 4.02347 9.81648 4.02072 9.53494C4.01346 8.77696 4.0133 8.01882 4.02105 7.26084C4.02395 6.98011 4.12753 6.89363 4.41843 6.89218C4.95392 6.88944 5.48941 6.89137 6.0249 6.89137C6.0896 6.89137 6.15413 6.89137 6.23916 6.89137C6.23916 6.80296 6.23803 6.73261 6.23932 6.66227C6.25191 5.97705 6.2269 5.28845 6.28514 4.60711C6.43132 2.89141 7.74915 1.64989 9.47243 1.58487C10.1935 1.55761 10.9161 1.57374 11.6381 1.57552C11.8775 1.57616 11.9805 1.6791 11.9818 1.91853C11.9856 2.6344 11.9858 3.35043 11.9818 4.06629C11.9803 4.31008 11.8804 4.40705 11.6199 4.4135C11.1328 4.42544 10.6454 4.42576 10.1581 4.43302C9.59231 4.44141 9.36933 4.65487 9.35917 5.22085C9.34965 5.75521 9.35707 6.28989 9.35707 6.84378C9.43242 6.84733 9.49566 6.85297 9.55891 6.85297C10.1786 6.85362 10.7983 6.85281 11.418 6.85362C11.822 6.8541 11.9103 6.94106 11.9106 7.33716C11.9113 8.04705 11.9117 8.75712 11.9103 9.46701C11.9096 9.79954 11.8274 9.8836 11.4942 9.88505C10.8564 9.88763 10.2186 9.88602 9.58101 9.88618C9.51551 9.88618 9.45017 9.88618 9.35788 9.88618C9.35788 9.97492 9.35788 10.0509 9.35788 10.1269C9.35788 12.0101 9.35804 13.8932 9.35788 15.7764C9.35788 16.2832 9.29867 16.3413 8.78528 16.3414C8.09345 16.3416 7.40146 16.3421 6.70963 16.3413C6.32741 16.3408 6.23932 16.254 6.23932 15.8766C6.23868 13.9691 6.239 12.0619 6.239 10.1546C6.239 10.0832 6.239 10.0117 6.239 9.90747Z" />
</g>
<defs>
<clipPath id="clip0_10_4470">
<rect width="16" height="16"  transform="translate(0 0.955322)"/>
</clipPath>
</defs>
</svg>
