<svg width="16" height="16" viewBox="0 0 16 16" fill="white" xmlns="http://www.w3.org/2000/svg">
<path d="M3.91125 7.98944C3.91125 9.45027 4.69065 10.8001 5.95576 11.5304C7.22078 12.2608 8.77954 12.2608 10.0447 11.5304C11.3098 10.8 12.0892 9.45017 12.0892 7.98944C11.8651 2.55294 4.13551 2.55135 3.91138 7.98944H3.91125ZM5.16992 7.98944C5.16992 6.97827 5.70935 6.04402 6.5851 5.53843C7.46072 5.03284 8.53957 5.03284 9.41519 5.53843C10.2909 6.04402 10.8304 6.97827 10.8304 7.98944C10.6757 11.7529 5.33354 11.7548 5.17005 7.98944H5.16992Z" fill="none"/>
<path d="M12.2506 0H3.74937C2.75521 0.000992064 1.80206 0.39619 1.09921 1.09921C0.39619 1.8021 0.000984127 2.75521 0 3.74937V12.2506C0.000992064 13.2448 0.39619 14.1979 1.09921 14.9008C1.8021 15.6038 2.75521 15.999 3.74937 16H12.2506C13.2448 15.999 14.1979 15.6038 14.9008 14.9008C15.6038 14.1979 15.999 13.2448 16 12.2506V3.74937C15.999 2.75521 15.6038 1.80206 14.9008 1.09921C14.1979 0.39619 13.2448 0.000984127 12.2506 0ZM14.7556 12.2505C14.7561 12.915 14.4923 13.5524 14.0224 14.0223C13.5526 14.4921 12.9152 14.7559 12.2506 14.7554H3.74937C3.08479 14.7559 2.4474 14.4922 1.97756 14.0223C1.50771 13.5524 1.24394 12.915 1.24441 12.2505V3.74921C1.24392 3.08464 1.50768 2.44724 1.97756 1.9774C2.44743 1.50756 3.08483 1.24378 3.74937 1.24425H12.2506C12.9152 1.24376 13.5526 1.50752 14.0224 1.9774C14.4923 2.44727 14.7561 3.08467 14.7556 3.74921V12.2505Z" fill="none"/>
<path d="M12.4446 2.84479C12.256 2.84479 12.0752 2.91969 11.9417 3.053C11.8084 3.18643 11.7335 3.36723 11.7335 3.55585C11.7335 3.74448 11.8084 3.92528 11.9417 4.05871C12.0752 4.19202 12.256 4.26692 12.4446 4.26692C12.6332 4.26692 12.814 4.19202 12.9474 4.05871C13.0808 3.92528 13.1557 3.74448 13.1557 3.55585C13.1557 3.36723 13.0808 3.18643 12.9474 3.053C12.814 2.91969 12.6332 2.84479 12.4446 2.84479Z" fill="none"/>
</svg>
