<svg width="13" height="10" viewBox="0 0 13 10" fill="none" xmlns="http://www.w3.org/2000/svg">
<path d="M7.68431 0.702497C7.54838 0.838984 7.54838 1.06094 7.68431 1.19743L10.9199 4.4499L1.31475 4.4499C1.12254 4.4499 0.966553 4.6067 0.966553 4.79991C0.966553 4.99327 1.12254 5.14992 1.31475 5.14992L10.9199 5.14992L7.68431 8.40259C7.54838 8.53907 7.54838 8.76103 7.68431 8.89752C7.82025 9.03416 8.04067 9.03416 8.17668 8.89752L12.0068 5.04743C12.0748 4.97915 12.1088 4.88954 12.1088 4.79993C12.1088 4.71032 12.0748 4.62071 12.0067 4.5525L8.1766 0.702417C8.04067 0.565696 7.82025 0.565696 7.68432 0.702417L7.68431 0.702497Z" fill="#4A8780" stroke="#5AA299" stroke-width="0.5"/>
</svg>
