<svg width="72" height="72" viewBox="0 0 72 72" fill="none" xmlns="http://www.w3.org/2000/svg">
<path d="M4.80293 13.9964C3.71447 14.1843 2.72998 14.348 1.7481 14.5258C0.592123 14.7351 0.0107272 14.2734 0.00571865 13.1021C-0.00249542 11.2454 -0.00129336 9.38836 0.00571865 7.53156C0.00932482 6.58288 0.332077 6.20415 1.25065 6.0425C12.688 4.02875 24.1212 1.98809 35.5708 0.0485359C36.6745 -0.138387 37.8884 0.260939 39.0388 0.461519C49.4225 2.27082 59.8033 4.09887 70.1859 5.9151C71.8169 6.20048 71.9974 6.39881 71.9974 8.08887C71.9974 9.7677 72.0048 11.4465 71.9946 13.1254C71.9878 14.253 71.3968 14.7294 70.3001 14.537C63.4125 13.329 56.5245 12.1241 49.6367 10.9178C49.5383 10.9005 49.4412 10.8758 49.3434 10.8552C48.394 10.6554 47.9466 10.1363 48.0836 9.39304C48.2239 8.63251 48.8149 8.29801 49.7549 8.4623C56.1272 9.5765 62.4989 10.6938 68.8712 11.8071C69.0868 11.8449 69.3074 11.8528 69.5634 11.8783C69.5634 10.6942 69.5634 9.55551 69.5634 8.31594C68.5619 8.13208 67.542 7.93782 66.5196 7.75803C56.7058 6.0321 46.889 4.32411 37.081 2.56598C35.7409 2.32585 34.5016 2.68604 33.2384 2.90415C25.2405 4.28457 17.2494 5.70494 9.25576 7.10981C7.16498 7.47734 5.0744 7.84691 2.98001 8.1916C2.5639 8.26009 2.37638 8.39402 2.39281 8.86143C2.42727 9.84822 2.40322 10.8371 2.40322 11.9235C3.90019 11.6679 5.32022 11.4311 6.73805 11.1824C15.915 9.57406 25.0935 7.97573 34.2654 6.33746C35.4424 6.1273 36.5687 6.10324 37.7427 6.33848C40.0204 6.79447 42.317 7.1514 44.6025 7.56846C45.4069 7.71522 45.8482 8.32267 45.7068 9.00493C45.5615 9.70574 44.9435 10.09 44.1587 9.9534C41.5993 9.50821 39.0426 9.04733 36.4802 8.62171C36.0753 8.55444 35.6375 8.58726 35.2294 8.6586C25.979 10.2755 16.7308 11.9042 7.48212 13.5316C7.4112 13.5441 7.34268 13.5708 7.23911 13.6005C7.23911 21.6305 7.23911 29.661 7.23911 37.7472C8.39569 37.7472 9.55347 37.7472 10.8022 37.7472C10.8022 36.2559 10.8022 34.7644 10.8022 33.2729C10.8022 32.8151 10.7954 32.357 10.804 31.8994C10.8206 31.0141 11.2993 30.4652 12.0283 30.4825C12.7323 30.4992 13.1925 31.0274 13.1981 31.878C13.2095 33.5821 13.2017 35.2864 13.2019 36.9908C13.2019 37.2378 13.2019 37.4849 13.2019 37.7668C14.0165 37.7668 14.7566 37.7668 15.6016 37.7668C15.6016 37.4938 15.6016 37.2254 15.6016 36.9569C15.6016 31.3099 15.6016 25.6631 15.6014 20.016C15.6014 19.8381 15.61 19.6591 15.596 19.482C15.5385 18.7575 15.0493 18.2683 14.3956 18.272C13.7402 18.2756 13.2264 18.7651 13.2125 19.4934C13.1855 20.9172 13.2027 22.3421 13.2019 23.7665C13.2015 24.7331 13.2133 25.7 13.1977 26.6662C13.1843 27.5005 12.6987 28.0329 11.9942 28.028C11.2912 28.0234 10.8098 27.4903 10.8064 26.6517C10.7964 24.2354 10.7796 21.8184 10.8122 19.4025C10.8393 17.4103 12.4428 15.8361 14.3791 15.8259C16.3505 15.8155 17.9478 17.3991 17.9957 19.4337C18.0172 20.3479 17.9993 21.2631 17.9993 22.3127C19.6047 20.821 21.3657 20.2566 23.3519 21.0516C25.3175 21.8384 26.2587 23.4267 26.439 25.5923C26.7237 25.5923 26.9933 25.5923 27.2628 25.5923C30.8373 25.5923 34.4118 25.5909 37.9862 25.5932C39.2131 25.594 39.5977 25.9849 39.5987 27.2331C39.6011 30.7167 39.5995 34.2002 39.5995 37.7431C43.9856 37.7431 48.3429 37.7431 52.7494 37.7431C52.7494 34.9476 52.7494 32.1414 52.7494 29.2809C51.7956 29.1753 50.5132 29.5754 50.4192 27.9905C50.3694 27.1505 50.9169 26.8918 52.7428 26.7809C52.7428 23.9779 52.7428 21.1708 52.7428 18.3148C51.1906 18.3148 49.6329 18.3148 47.9989 18.3148C47.9989 18.6087 47.9989 18.8811 47.9989 19.1534C47.9989 23.961 47.9993 28.7684 47.9981 33.576C47.9981 33.83 48.0221 34.0921 47.9711 34.3365C47.8422 34.9542 47.4526 35.3142 46.8255 35.3502C46.2343 35.3843 45.718 34.9362 45.621 34.3168C45.586 34.0927 45.6 33.8602 45.6 33.6314C45.599 28.2643 45.5986 22.8971 45.5998 17.53C45.6 16.1865 45.9606 15.8247 47.2971 15.8245C51.7714 15.8234 56.2458 15.8234 60.7201 15.8245C62.0393 15.8249 62.3974 16.1934 62.3974 17.5518C62.3982 24.5468 62.3984 31.5421 62.3974 38.5371C62.3972 39.8782 62.0323 40.2443 60.6987 40.2443C43.2261 40.2449 25.7538 40.2447 8.28129 40.2447C7.95854 40.2447 7.63558 40.2447 7.20244 40.2447C7.20244 40.5727 7.20244 40.8658 7.20244 41.1589C7.20244 50.7232 7.20244 60.2874 7.20244 69.8514C7.20244 70.0296 7.20344 70.2076 7.20224 70.3857C7.19583 71.4153 6.7693 71.9845 6.00339 71.9855C5.23387 71.9865 4.80353 71.4218 4.80353 70.389C4.80233 51.947 4.80273 33.5051 4.80273 15.0631C4.80293 14.7347 4.80293 14.4065 4.80293 13.9964ZM37.1662 28.0878C30.7506 28.0878 24.3967 28.0878 18.0626 28.0878C18.0626 29.7265 18.0626 31.3111 18.0626 32.8787C24.4598 32.8787 30.796 32.8787 37.1662 32.8787C37.1662 31.2728 37.1662 29.7065 37.1662 28.0878ZM55.2151 26.7809C56.1819 26.8912 57.4916 26.5015 57.5505 27.9514C57.617 29.5827 56.1815 29.1616 55.2591 29.2853C55.2591 32.167 55.2591 34.9727 55.2591 37.7586C56.8599 37.7586 58.3997 37.7586 59.947 37.7586C59.947 31.2465 59.947 24.7788 59.947 18.3274C58.3376 18.3274 56.7799 18.3274 55.2149 18.3274C55.2151 21.158 55.2151 23.9272 55.2151 26.7809ZM32.4 35.4136C27.5509 35.4136 22.7969 35.4136 18.0628 35.4136C18.0628 36.2392 18.0628 37.0105 18.0628 37.7629C22.8603 37.7629 27.5964 37.7629 32.3721 37.7629C32.3832 37.6051 32.3984 37.4838 32.3988 37.3624C32.4012 36.73 32.4 36.0977 32.4 35.4136ZM23.9788 25.5642C23.8305 24.0397 22.7821 23.0741 21.451 23.1554C20.1967 23.2321 19.2513 24.26 19.2619 25.5642C20.8208 25.5642 22.38 25.5642 23.9788 25.5642ZM34.8155 37.7535C35.6399 37.7535 36.3956 37.7535 37.1455 37.7535C37.1455 36.9343 37.1455 36.1648 37.1455 35.423C36.3331 35.423 35.5764 35.423 34.8155 35.423C34.8155 36.2186 34.8155 36.9518 34.8155 37.7535Z" fill="#4A8780"/>
<path d="M34.7687 62.2233C34.7687 61.3702 34.7687 60.6172 34.7687 59.7813C34.4463 59.7813 34.1544 59.7813 33.8627 59.7813C26.7407 59.7813 19.6187 59.7817 12.4967 59.7808C11.1648 59.7806 10.8046 59.416 10.8032 58.0708C10.8016 56.6723 10.7748 55.2725 10.8221 53.8756C10.8345 53.5054 10.9785 53.0054 11.2396 52.8093C11.6409 52.5076 11.6186 52.2291 11.5202 51.8447C11.2939 50.9602 11.0663 50.0759 10.8607 49.1864C10.6848 48.4248 11.0164 47.7868 11.6535 47.5999C12.3334 47.4005 12.9727 47.7848 13.1791 48.5691C13.476 49.697 13.7268 50.8375 14.0237 51.9654C14.0714 52.1466 14.2569 52.2903 14.3787 52.4513C14.544 52.3072 14.7909 52.1951 14.8604 52.0131C15.1403 51.2804 15.3548 50.5224 15.6139 49.7808C15.8895 48.9917 16.5132 48.6307 17.1651 48.8562C17.8401 49.0896 18.1278 49.7363 17.8896 50.526C17.6924 51.1797 17.475 51.8271 17.2551 52.5131C17.923 52.8888 18.033 53.5019 18.01 54.2066C17.9777 55.1942 18.0018 56.1837 18.056 57.21C18.8019 54.7835 20.3321 53.2021 22.8046 52.5555C22.8046 52.0724 22.7902 51.5913 22.8072 51.1115C22.8749 49.189 24.3773 47.6152 26.2637 47.5838C28.7369 47.5426 31.2118 47.5479 33.6852 47.5805C35.6135 47.606 37.1485 49.1731 37.19 51.1355C37.2243 52.7622 37.3232 54.4027 37.1698 56.0149C36.9494 58.3309 37.3549 60.6245 37.2147 62.9324C37.1323 64.2876 36.841 64.661 35.5272 64.6649C35.2541 64.6657 34.981 64.6651 34.6256 64.6651C34.3816 66.1348 34.1416 67.5786 33.9026 69.0224C33.799 69.6486 33.7099 70.2775 33.5915 70.9008C33.461 71.5884 33.0445 71.9726 32.3463 71.9863C31.6219 72.0005 30.8968 72.0005 30.1724 71.9883C29.3374 71.9742 28.9377 71.6308 28.7958 70.7936C28.4905 68.9914 28.1994 67.1868 27.9003 65.3836C27.8634 65.1608 27.8138 64.9403 27.7657 64.6961C25.261 64.6961 22.7926 64.6961 20.2256 64.6961C20.0364 65.8239 19.8441 66.9642 19.654 68.1051C19.5037 69.0067 19.3637 69.9099 19.205 70.8099C19.064 71.6112 18.6689 71.9681 17.888 71.9869C17.1637 72.0042 16.4383 72.0042 15.714 71.9869C14.9327 71.9681 14.5354 71.6132 14.399 70.8093C14.0931 69.0073 13.802 67.2025 13.5034 65.3993C13.4666 65.1761 13.4199 64.9548 13.3644 64.6624C12.8966 64.6624 12.4518 64.6834 12.0095 64.6578C11.2945 64.616 10.8128 64.1162 10.8084 63.4512C10.8042 62.7845 11.2836 62.285 11.9949 62.2296C12.2184 62.2121 12.4444 62.2237 12.6694 62.2237C19.7163 62.2235 26.7634 62.2235 33.8102 62.2235C34.1073 62.2233 34.404 62.2233 34.7687 62.2233ZM25.2113 57.338C28.047 57.338 30.7686 57.3466 33.4903 57.3327C34.2977 57.3286 34.7789 56.8698 34.7907 56.0768C34.8149 54.4761 34.8131 52.8747 34.7913 51.2739C34.7811 50.5358 34.3375 50.0356 33.6405 50.028C31.2184 50.0022 28.7956 50.0042 26.3735 50.0262C25.7144 50.0321 25.2426 50.4478 25.2279 51.1082C25.1824 53.1588 25.2113 55.2111 25.2113 57.338ZM13.2376 57.2964C14.065 57.2964 14.8033 57.2964 15.5538 57.2964C15.5538 56.4839 15.5538 55.715 15.5538 54.9531C14.7484 54.9531 13.9921 54.9531 13.2376 54.9531C13.2376 55.7607 13.2376 56.512 13.2376 57.2964ZM15.8194 64.7065C16.1021 66.3651 16.3756 67.9683 16.6488 69.5714C16.7584 69.5638 16.8682 69.5561 16.9778 69.5485C17.2404 67.9463 17.5029 66.3441 17.7714 64.7065C17.0778 64.7065 16.4884 64.7065 15.8194 64.7065ZM30.2201 64.6922C30.5014 66.3723 30.7684 67.9663 31.0353 69.5604C31.1471 69.5597 31.2589 69.5589 31.3708 69.5583C31.6359 67.9512 31.901 66.3443 32.1734 64.6922C31.482 64.6922 30.9139 64.6922 30.2201 64.6922ZM22.7453 57.3056C22.7453 56.551 22.7453 55.8852 22.7453 55.1328C21.7113 55.5837 21.0496 56.2538 20.6359 57.3056C21.404 57.3056 22.0629 57.3056 22.7453 57.3056Z" fill="#4A8780"/>
<path d="M45.5994 50.0676C45.5994 50.9317 45.5994 51.7426 45.5994 52.5534C45.5994 58.4267 45.5996 64.3 45.5988 70.1731C45.5988 70.4271 45.6236 70.688 45.5768 70.9338C45.4519 71.589 45.0477 71.9832 44.3853 71.9746C43.7244 71.9661 43.3295 71.5653 43.2167 70.9065C43.1785 70.6839 43.2003 70.4501 43.2003 70.2214C43.1997 63.2549 43.1995 56.2884 43.2001 49.3217C43.2003 47.9222 43.5467 47.5709 44.9266 47.5707C49.7988 47.5699 54.6709 47.5697 59.5431 47.5709C60.8219 47.5713 61.1975 47.9503 61.1977 49.2435C61.1989 56.2609 61.1985 63.2781 61.1973 70.2956C61.1973 70.5241 61.2185 70.7608 61.1691 70.9795C61.0302 71.5939 60.6405 71.9718 60.0131 71.9754C59.3509 71.9793 58.9448 71.592 58.8206 70.9357C58.7742 70.6896 58.7992 70.4289 58.7992 70.1747C58.7984 63.793 58.7986 57.4112 58.7986 51.0295C58.7986 50.727 58.7986 50.4243 58.7986 50.0672C54.4043 50.0676 50.0484 50.0676 45.5994 50.0676Z" fill="#4A8780"/>
<path d="M67.1975 44.1371C67.1975 52.8106 67.1977 61.4842 67.1969 70.1577C67.1969 70.4119 67.2216 70.6722 67.1773 70.919C67.0595 71.5758 66.6598 71.9747 65.9975 71.9747C65.3357 71.9747 64.9364 71.5781 64.8168 70.9203C64.7766 70.6983 64.7984 70.4639 64.7984 70.235C64.7978 52.8116 64.7978 35.3882 64.7988 17.9649C64.7988 17.7109 64.7723 17.4471 64.8288 17.205C64.9717 16.5926 65.3596 16.2279 65.997 16.2288C66.6329 16.2296 67.0276 16.5881 67.1647 17.2041C67.2242 17.4716 67.1965 17.7608 67.1965 18.0401C67.1977 26.7392 67.1975 35.4382 67.1975 44.1371Z" fill="#4A8780"/>
<path d="M35.9988 21.9291C34.0992 21.9291 32.1995 21.9336 30.2999 21.9273C29.2244 21.9236 28.8055 21.497 28.8027 20.4009C28.7969 18.1625 28.7969 15.9242 28.8027 13.686C28.8055 12.5897 29.223 12.1641 30.3013 12.1627C34.1006 12.1582 37.8999 12.1582 41.6992 12.1627C42.7752 12.1639 43.1948 12.592 43.1978 13.6874C43.2038 15.9258 43.2038 18.1642 43.1978 20.4024C43.1948 21.4962 42.7734 21.9236 41.6978 21.9271C39.7981 21.9336 37.8985 21.9291 35.9988 21.9291ZM31.2537 14.6371C31.2537 16.2815 31.2537 17.8643 31.2537 19.4262C32.464 19.4262 33.6204 19.4262 34.7607 19.4262C34.7607 17.7999 34.7607 16.2352 34.7607 14.6371C33.5831 14.6371 32.4449 14.6371 31.2537 14.6371ZM37.2341 19.4337C38.4476 19.4337 39.6038 19.4337 40.7414 19.4337C40.7414 17.7966 40.7414 16.2136 40.7414 14.6428C39.5441 14.6428 38.4058 14.6428 37.2341 14.6428C37.2341 16.247 37.2341 17.8117 37.2341 19.4337Z" fill="#4A8780"/>
<path d="M56.392 58.5849C56.3778 59.2455 55.8202 59.7896 55.1729 59.7749C54.5222 59.7602 53.9907 59.1954 54.0049 58.5339C54.0191 57.8702 54.5719 57.3304 55.223 57.3449C55.8739 57.3594 56.4064 57.924 56.392 58.5849Z" fill="#4A8780"/>
<path d="M29.992 52.461C30.6429 52.4561 31.1892 53.0042 31.1942 53.6671C31.1993 54.3274 30.6577 54.8861 30.0082 54.891C29.3585 54.8959 28.8118 54.3463 28.8072 53.6836C28.8024 53.0195 29.3389 52.4659 29.992 52.461Z" fill="#4A8780"/>
</svg>
