<svg width="89" height="177" viewBox="0 0 89 177" fill="none" xmlns="http://www.w3.org/2000/svg">
<g opacity="0.6">
<path d="M49.7899 176.437C49.7899 161.742 63.105 161.742 63.105 147.045C63.105 132.344 49.7899 132.344 49.7899 117.646C49.7899 102.943 63.105 102.943 63.105 88.2387C63.105 73.538 49.7899 73.538 49.7899 58.8404C49.7899 44.1303 63.105 44.1303 63.105 29.4202C63.105 14.7101 49.7899 14.7101 49.7899 8.21993e-06" stroke="white" stroke-width="3" stroke-miterlimit="10"/>
<path d="M73.6849 176.437C73.6849 161.742 87 161.742 87 147.045C87 132.344 73.6849 132.344 73.6849 117.646C73.6849 102.943 87 102.943 87 88.2387C87 73.538 73.6849 73.538 73.6849 58.8404C73.6849 44.1303 87 44.1303 87 29.4202C87 14.7101 73.6849 14.7101 73.6849 8.21993e-06" stroke="white" stroke-width="3" stroke-miterlimit="10"/>
<path d="M25.8949 176.437C25.8949 161.742 39.21 161.742 39.21 147.045C39.21 132.344 25.8949 132.344 25.8949 117.646C25.8949 102.943 39.21 102.943 39.21 88.2387C39.21 73.538 25.8949 73.538 25.8949 58.8404C25.8949 44.1303 39.21 44.1303 39.21 29.4202C39.21 14.7101 25.8949 14.7101 25.8949 8.21993e-06" stroke="white" stroke-width="3" stroke-miterlimit="10"/>
<path d="M1.99988 176.437C1.99988 161.742 15.3149 161.742 15.3149 147.045C15.3149 132.344 1.99988 132.344 1.99988 117.646C1.99988 102.943 15.3149 102.943 15.3149 88.2387C15.3149 73.538 1.99988 73.538 1.99988 58.8404C1.99988 44.1303 15.3149 44.1303 15.3149 29.4202C15.3149 14.7101 1.99988 14.7101 1.99988 8.21993e-06" stroke="white" stroke-width="3" stroke-miterlimit="10"/>
</g>
</svg>
