<svg width="72" height="72" viewBox="0 0 72 72" fill="none" xmlns="http://www.w3.org/2000/svg">
<path d="M69.5991 53.2391C66.8453 53.2391 64.1863 53.2391 61.4715 53.2391C61.4715 57.5671 61.4715 61.8789 61.4715 66.2311C64.1547 66.2311 66.8127 66.2311 69.6002 66.2311C69.6002 65.7761 69.6013 65.3221 69.6 64.868C69.5983 64.3162 69.7607 63.8617 70.402 63.86C71.0305 63.8585 71.2212 64.2819 71.2193 64.85C71.2131 66.6281 71.2234 68.4063 71.2138 70.1846C71.2101 70.8928 70.9429 71.15 70.2439 71.175C70.057 71.1817 69.8697 71.1766 69.6825 71.1766C53.2836 71.1766 36.8845 71.1768 20.4855 71.1759C20.205 71.1759 19.8683 71.2603 19.6579 71.136C19.3785 70.971 19.0275 70.6421 19.0226 70.3779C19.018 70.1178 19.3611 69.7691 19.638 69.612C19.8724 69.479 20.2307 69.555 20.5341 69.5548C36.5588 69.5533 52.5835 69.5535 68.6082 69.5535C68.9063 69.5535 69.2042 69.5535 69.5501 69.5535C69.5501 68.9771 69.5501 68.4783 69.5501 67.9522C47.2436 67.9522 24.979 67.9522 2.66646 67.9522C2.66646 68.4708 2.66646 68.97 2.66646 69.5535C2.9824 69.5535 3.25633 69.5535 3.53008 69.5535C7.10927 69.5535 10.6886 69.5527 14.2678 69.555C14.5245 69.5551 14.8436 69.4863 15.0229 69.6101C15.2925 69.7961 15.6377 70.1298 15.6289 70.3899C15.6199 70.6539 15.2413 70.9293 14.9816 71.1487C14.8838 71.2314 14.6651 71.1755 14.5015 71.1757C10.4076 71.1765 6.31371 71.1776 2.21983 71.1755C1.19365 71.175 1.0009 70.9788 1.0009 69.9401C0.999772 61.5172 0.99996 53.0941 1.0009 44.6713C1.00108 43.6183 1.2169 43.4006 2.27196 43.3978C3.83309 43.3936 5.39402 43.3966 7.13946 43.3966C5.60871 41.6896 5.92634 39.728 5.90421 37.8314C5.89671 37.1943 6.21471 36.8812 6.85015 36.887C6.94371 36.8879 7.03971 36.8722 7.13046 36.8881C8.92934 37.2016 10.3543 36.6189 11.4028 35.1191C11.4688 35.0248 11.5648 34.9509 11.649 34.8697C12.1553 34.3814 12.6433 34.3049 12.988 34.6948C13.4361 35.2019 13.2195 35.6458 12.7885 36.0288C12.5335 36.2555 12.2526 36.4531 11.9833 36.6639C12.0343 36.7379 12.0851 36.812 12.1361 36.8861C12.9679 36.8861 13.7996 36.8791 14.6312 36.8881C15.4277 36.8966 15.6803 37.1392 15.6915 37.94C15.703 38.7584 15.7911 39.5973 15.6465 40.3908C15.4633 41.3969 15.0793 42.3667 14.7821 43.3516C17.8073 43.3516 20.9927 43.3516 24.0767 43.3516C23.9785 42.2915 23.8826 41.2573 23.7825 40.1767C23.1874 40.0612 22.2176 40.3477 22.2533 39.2829C22.2851 38.3319 23.1793 38.5781 23.7561 38.4663C23.7988 38.4044 23.845 38.3684 23.8481 38.3287C23.9653 36.8859 23.9648 36.8857 25.4411 36.8857C27.7337 36.8857 30.0263 36.8849 32.3188 36.8861C33.4703 36.8866 33.5997 37.0102 33.6679 38.1515C33.6733 38.2415 33.6949 38.3304 33.7148 38.4568C34.3367 38.6004 35.316 38.3051 35.2521 39.3974C35.1981 40.3203 34.368 40.0873 33.7603 40.1647C33.6521 41.2226 33.5447 42.2739 33.4339 43.3569C35.0846 43.3569 36.8273 43.3569 38.5536 43.3569C38.5536 42.3616 38.5437 41.3894 38.5566 40.4174C38.5675 39.5951 38.839 39.3198 39.6596 39.3183C43.2857 39.3118 46.9118 39.3123 50.5377 39.3181C51.237 39.3193 51.6364 39.632 51.6013 40.1527C51.5565 40.8181 51.1011 40.9796 50.5198 40.9713C49.8235 40.9614 49.1269 40.9691 48.3469 40.9691C48.3469 41.4251 48.3469 41.8156 48.3469 42.206C48.3469 42.5746 48.3469 42.9433 48.3469 43.3544C54.5578 43.3544 60.7947 43.3544 67.0858 43.3544C67.1023 43.1855 67.1346 43.0074 67.1348 42.8291C67.1383 40.6766 67.129 38.5239 67.1425 36.3716C67.146 35.792 67.0174 35.3283 66.3626 35.2516C65.8384 35.1901 65.52 35.627 65.5054 36.3695C65.4966 36.8139 65.5127 37.2592 65.4887 37.7024C65.4621 38.1991 65.1816 38.492 64.6804 38.483C64.1833 38.474 63.9043 38.1806 63.8935 37.6807C63.8801 37.0728 63.8665 36.4627 63.9004 35.8563C63.9658 34.6893 64.8934 33.7535 66.0557 33.6406C67.2782 33.5221 68.3713 34.2427 68.6689 35.3968C68.7552 35.7316 68.7814 36.0896 68.7831 36.4372C68.7934 38.4727 68.7882 40.5082 68.7882 42.5439C68.7882 42.7964 68.7882 43.049 68.7882 43.3966C69.2813 43.3966 69.7176 43.3861 70.1532 43.3989C70.9442 43.4221 71.2137 43.682 71.2142 44.4577C71.2187 50.0263 71.2148 55.5946 71.2193 61.1632C71.2197 61.7274 71.0468 62.1618 70.4188 62.172C69.7825 62.1821 69.5998 61.7377 69.5998 61.1803C69.5995 58.8172 69.5989 56.4541 69.5985 54.0909C69.5991 53.8183 69.5991 53.5445 69.5991 53.2391ZM49.9635 45.1021C40.6954 45.1021 31.4732 45.1021 22.2542 45.1021C22.2542 52.1686 22.2542 59.1795 22.2542 66.2306C23.3269 66.2306 24.3645 66.2306 25.4809 66.2306C25.4809 65.9216 25.4809 65.6471 25.4809 65.3726C25.4809 61.1846 25.4792 56.9968 25.4824 52.8088C25.4831 51.8452 25.707 51.5881 26.5967 51.5874C32.9361 51.5814 39.2757 51.5816 45.615 51.5872C46.4839 51.588 46.7299 51.8482 46.734 52.734C46.7419 54.4185 46.7366 56.103 46.7357 57.7875C46.7357 57.9043 46.7387 58.0228 46.7215 58.1377C46.65 58.6145 46.3845 58.9327 45.8907 58.919C45.4045 58.9055 45.1272 58.5965 45.0992 58.1049C45.0807 57.7783 45.0926 57.45 45.0926 57.1224C45.0923 55.842 45.0925 54.5615 45.0925 53.2545C39.0718 53.2545 33.1236 53.2545 27.1624 53.2545C27.1624 56.5198 27.1624 59.7373 27.1624 62.9709C33.1493 62.9709 39.0987 62.9709 45.1002 62.9709C45.1002 62.3913 45.0085 61.8335 45.1352 61.3306C45.2091 61.0376 45.6126 60.6742 45.9047 60.6375C46.1412 60.6076 46.4929 60.9776 46.6793 61.2487C46.8028 61.4285 46.7344 61.7469 46.7351 62.0034C46.7385 63.4003 46.7368 64.7971 46.7368 66.2306C47.8532 66.2306 48.8908 66.2306 49.9635 66.2306C49.9635 59.1796 49.9635 52.1688 49.9635 45.1021ZM20.5483 66.2293C20.5483 62.9683 20.5483 59.7708 20.5483 56.5389C14.5654 56.5389 8.62034 56.5389 2.65671 56.5389C2.65671 59.7948 2.65671 62.9911 2.65671 66.2293C8.62352 66.2293 14.5525 66.2293 20.5483 66.2293ZM20.527 54.8175C20.527 51.5488 20.527 48.3191 20.527 45.0911C14.5399 45.0911 8.6119 45.0911 2.66421 45.0911C2.66421 48.3528 2.66421 51.5698 2.66421 54.8175C8.63834 54.8175 14.5665 54.8175 20.527 54.8175ZM69.5425 51.5523C69.5425 49.3501 69.5425 47.2173 69.5425 45.086C63.5571 45.086 57.6287 45.086 51.6921 45.086C51.6921 47.258 51.6921 49.3899 51.6921 51.5523C57.6595 51.5523 63.5665 51.5523 69.5425 51.5523ZM59.7411 66.2711C59.7411 61.854 59.7411 57.5484 59.7411 53.2498C57.0216 53.2498 54.3662 53.2498 51.6846 53.2498C51.6846 57.5992 51.6846 61.9055 51.6846 66.2711C52.1065 66.2711 52.476 66.2711 52.8456 66.2711C55.1325 66.2711 57.4195 66.2711 59.7411 66.2711ZM32.0239 38.5625C29.8133 38.5625 27.6806 38.5625 25.5117 38.5625C25.5117 39.7299 25.4597 40.8479 25.5283 41.9585C25.5814 42.8159 26.2142 43.361 27.0666 43.3831C28.186 43.4122 29.307 43.4126 30.4264 43.385C31.332 43.3627 31.9772 42.7509 32.0136 41.8462C32.0569 40.7758 32.0239 39.7021 32.0239 38.5625ZM7.57052 38.5563C7.57052 39.2718 7.50002 39.9502 7.58459 40.6087C7.7884 42.1964 9.06059 43.3271 10.6161 43.3904C12.2725 43.4578 13.65 42.4378 13.9609 40.8125C14.0985 40.0927 14.0537 39.338 14.0938 38.5565C11.8648 38.5563 9.72977 38.5563 7.57052 38.5563ZM45.0718 64.722C39.0585 64.722 33.1116 64.722 27.1688 64.722C27.1688 65.2584 27.1688 65.7382 27.1688 66.2165C33.16 66.2165 39.1073 66.2165 45.0718 66.2165C45.0718 65.7 45.0718 65.2378 45.0718 64.722ZM40.1869 41.0013C40.1869 41.4918 40.1794 41.9304 40.1886 42.3686C40.2041 43.1158 40.4607 43.3856 41.197 43.3933C42.3405 43.4051 43.4845 43.3933 44.628 43.3978C46.6161 43.4054 46.836 43.6638 46.7141 41.1506C46.7121 41.1101 46.6718 41.0713 46.632 41.0013C44.5309 41.0013 42.4131 41.0013 40.1869 41.0013Z" fill="#4A8780"/>
<path d="M36.0934 29.5241C31.9082 29.5241 27.7229 29.5254 23.5377 29.5234C22.4183 29.5228 22.2216 29.325 22.2196 28.2264C22.2182 27.4314 22.2451 26.6351 22.2104 25.8416C22.1867 25.2982 22.3876 24.9199 22.7888 24.5677C24.8798 22.7325 26.946 20.8689 29.0406 19.0378C29.4267 18.7003 29.5834 18.3562 29.5815 17.8384C29.5624 12.6705 29.5694 7.50242 29.5705 2.33436C29.5707 1.11017 29.7317 0.947044 30.9306 0.946669C34.4378 0.945919 37.945 0.944794 41.4522 0.947606C42.427 0.948356 42.6452 1.16304 42.6458 2.14986C42.6495 7.36461 42.6552 12.5795 42.6368 17.7943C42.6349 18.332 42.7898 18.6995 43.1972 19.0549C45.2241 20.8213 47.2138 22.6305 49.2437 24.3934C49.7816 24.8606 50.0696 25.349 50.0113 26.0825C49.9523 26.8262 50.001 27.5782 49.9975 28.3264C49.993 29.2832 49.7614 29.5213 48.789 29.5224C44.5573 29.5265 40.3255 29.5241 36.0934 29.5241ZM46.821 24.6285C46.8443 24.5692 46.8677 24.5098 46.891 24.4505C46.7621 24.3534 46.626 24.2645 46.5058 24.1579C44.8797 22.7139 43.2687 21.2522 41.6224 19.8315C41.1694 19.4407 41.0027 19.0256 41.0048 18.4385C41.0224 13.4334 41.0149 8.42811 41.0149 3.42279C41.0149 3.16911 41.0149 2.91542 41.0149 2.61786C37.7235 2.61786 34.4869 2.61786 31.2029 2.61786C31.2029 2.92104 31.2029 3.17623 31.2029 3.43123C31.2029 7.75817 31.0823 12.09 31.2548 16.4102C31.3384 18.5049 30.8177 19.9935 29.0835 21.2124C27.7418 22.1555 26.5979 23.3797 25.2467 24.5854C25.6339 24.6052 25.858 24.6262 26.082 24.6268C27.4384 24.6302 28.7948 24.6208 30.1512 24.6328C30.856 24.6392 31.2417 24.9555 31.1903 25.4809C31.1295 26.1043 30.7015 26.2575 30.145 26.2545C28.4145 26.2451 26.6839 26.2513 24.9533 26.2513C24.6107 26.2513 24.2684 26.2513 23.9228 26.2513C23.9228 26.8464 23.9228 27.3467 23.9228 27.8565C32.0783 27.8565 40.1807 27.8565 48.2981 27.8565C48.2981 27.3116 48.2981 26.8115 48.2981 26.2513C47.997 26.2513 47.7445 26.2513 47.4921 26.2513C43.3294 26.2513 39.1667 26.2517 35.004 26.2504C34.7706 26.2504 34.4682 26.3254 34.3187 26.2097C34.057 26.0068 33.7446 25.6916 33.7272 25.4066C33.7127 25.1724 34.0555 24.851 34.3148 24.6868C34.5034 24.5674 34.8145 24.6302 35.0708 24.63C38.7424 24.6275 42.4138 24.6283 46.0855 24.6283C46.3307 24.6285 46.576 24.6285 46.821 24.6285Z" fill="#4A8780"/>
<path d="M13.2494 0.94638C16.8979 0.94638 20.5465 0.94563 24.195 0.946942C25.2983 0.947317 25.4796 1.11925 25.48 2.18763C25.482 7.89513 25.482 13.6026 25.4798 19.3101C25.4794 20.3478 25.2912 20.5375 24.2459 20.5379C16.902 20.5405 9.55823 20.5407 2.21423 20.5377C1.18842 20.5373 1.0011 20.3376 1.00092 19.2901C0.99979 13.5826 0.999603 7.87507 1.00092 2.16757C1.0011 1.14063 1.19592 0.947692 2.23354 0.94713C5.90554 0.945255 9.57754 0.94638 13.2494 0.94638ZM23.8388 18.8772C23.8388 13.4146 23.8388 8.04232 23.8388 2.62019C20.5746 2.62019 17.3419 2.62019 14.1045 2.62019C14.1045 8.06313 14.1045 13.4549 14.1045 18.8772C17.3586 18.8772 20.572 18.8772 23.8388 18.8772ZM12.3852 2.63163C9.09229 2.63163 5.8806 2.63163 2.6736 2.63163C2.6736 8.08694 2.6736 13.4798 2.6736 18.8588C5.94285 18.8588 9.1566 18.8588 12.3852 18.8588C12.3852 13.4249 12.3852 8.0485 12.3852 2.63163Z" fill="#4A8780"/>
<path d="M58.9584 0.946349C62.6304 0.946349 66.3023 0.945224 69.9743 0.946911C71.0207 0.947474 71.2164 1.1376 71.2168 2.15854C71.2183 7.88947 71.2185 13.6202 71.2166 19.3512C71.2163 20.3269 71.0083 20.5369 70.0114 20.5373C62.6441 20.5405 55.2769 20.5405 47.9096 20.5367C46.9502 20.5362 46.7396 20.3275 46.7391 19.389C46.7357 13.6114 46.7353 7.83378 46.7395 2.05597C46.74 1.16441 46.9656 0.948599 47.8727 0.947661C51.5678 0.944474 55.263 0.946349 58.9584 0.946349ZM48.3883 2.6181C48.3883 8.05616 48.3883 13.4453 48.3883 18.8593C51.6593 18.8593 54.8893 18.8593 58.1066 18.8593C58.1066 13.4125 58.1066 8.02241 58.1066 2.6181C54.8441 2.6181 51.6293 2.6181 48.3883 2.6181ZM59.8461 2.61454C59.8461 8.05335 59.8461 13.447 59.8461 18.8713C63.0988 18.8713 66.3103 18.8713 69.5535 18.8713C69.5535 13.4355 69.5535 8.04491 69.5535 2.61454C66.2934 2.61454 63.0793 2.61454 59.8461 2.61454Z" fill="#4A8780"/>
<path d="M63.8717 59.7309C63.8717 60.0345 63.9748 60.3954 63.8458 60.6272C63.68 60.9249 63.3274 61.3059 63.0564 61.305C62.7857 61.304 62.3469 60.914 62.2828 60.6272C62.1585 60.0709 62.1587 59.4487 62.2793 58.8909C62.3436 58.5933 62.7315 58.2245 63.0356 58.1531C63.5002 58.0438 63.8072 58.4133 63.8691 58.8905C63.9049 59.1662 63.8756 59.4504 63.8756 59.7307C63.8743 59.7309 63.873 59.7309 63.8717 59.7309Z" fill="#4A8780"/>
<path d="M36.1043 54.8565C37.6461 54.8565 39.1881 54.8666 40.7299 54.8512C41.3187 54.8454 41.803 55.007 41.8079 55.6588C41.8128 56.3141 41.3189 56.4819 40.7378 56.481C37.654 56.4763 34.5702 56.4763 31.4866 56.481C30.9085 56.4819 30.4478 56.3259 30.3994 55.6659C30.3621 55.1563 30.7729 54.8608 31.4789 54.8582C33.0205 54.8527 34.5625 54.8567 36.1043 54.8565Z" fill="#4A8780"/>
<path d="M42.6721 45.8788C44.0222 45.8917 45.1052 46.9978 45.088 48.3455C45.0709 49.6813 43.9409 50.7868 42.6094 50.7703C41.2808 50.7538 40.1669 49.6089 40.1911 48.2846C40.2158 46.9335 41.3168 45.8657 42.6721 45.8788ZM41.8006 48.459C41.9952 48.6268 42.2427 48.9949 42.5663 49.0828C43.0279 49.2082 43.3718 48.8945 43.4224 48.3949C43.4731 47.8967 43.2186 47.5777 42.7212 47.5277C42.2284 47.478 41.9318 47.7356 41.8006 48.459Z" fill="#4A8780"/>
<path d="M27.1273 48.3153C27.1326 46.9615 28.2208 45.878 29.5744 45.8789C30.927 45.8798 32.0263 46.9722 32.0254 48.3149C32.0245 49.6458 30.9079 50.7642 29.5733 50.771C28.2486 50.7775 27.1223 49.6467 27.1273 48.3153ZM29.5318 47.5072C29.0751 47.5769 28.7653 47.8171 28.7871 48.3314C28.8081 48.83 29.1013 49.1195 29.595 49.1063C30.0866 49.0932 30.3698 48.7942 30.3623 48.2928C30.3544 47.7807 30.0358 47.5525 29.5318 47.5072Z" fill="#4A8780"/>
<path d="M38.5399 48.2933C38.5504 49.6504 37.462 50.7595 36.1101 50.7689C34.801 50.7781 33.6949 49.6889 33.6739 48.37C33.6518 46.9891 34.7061 45.8929 36.07 45.8791C37.4507 45.8646 38.5292 46.9189 38.5399 48.2933ZM36.2633 47.3989C36.1562 47.3991 36.0492 47.3995 35.9421 47.3997C35.7263 47.6999 35.3796 47.9789 35.3262 48.3057C35.2525 48.7561 35.5838 49.0947 36.0766 49.1089C36.6046 49.1243 36.9584 48.7889 36.8879 48.3001C36.841 47.9762 36.4823 47.6976 36.2633 47.3989Z" fill="#4A8780"/>
<path d="M11.5834 62.187C11.0477 62.1861 10.5115 62.1992 9.97637 62.1821C9.48099 62.1664 9.1825 61.8799 9.17331 61.3945C9.16393 60.9036 9.46543 60.5995 9.95537 60.5892C11.0494 60.5659 12.1446 60.5668 13.2389 60.585C13.7266 60.5931 14.0451 60.886 14.0434 61.3733C14.0417 61.8913 13.7196 62.178 13.1909 62.1861C12.6552 62.1945 12.1193 62.1881 11.5834 62.187Z" fill="#4A8780"/>
<path d="M11.5832 49.1261C12.1198 49.1261 12.6572 49.1099 13.1929 49.1308C13.7076 49.1508 14.0438 49.4298 14.0439 49.9565C14.0441 50.4507 13.7134 50.7457 13.2407 50.7582C12.1451 50.7875 11.0473 50.7899 9.95214 50.7545C9.48152 50.7393 9.16258 50.4365 9.17195 49.9353C9.18133 49.4398 9.49295 49.1623 9.9737 49.1356C10.5086 49.106 11.0466 49.1289 11.5832 49.1289C11.5832 49.1279 11.5832 49.127 11.5832 49.1261Z" fill="#4A8780"/>
<path d="M60.619 49.1201C60.3389 49.1191 60.0574 49.1362 59.779 49.1152C59.2878 49.0785 58.9994 48.8021 58.9956 48.3061C58.9921 47.8389 59.2737 47.5511 59.7248 47.5205C60.3055 47.481 60.8928 47.4785 61.4732 47.5173C61.9572 47.5498 62.2493 47.8516 62.2199 48.3555C62.1908 48.8533 61.8784 49.0998 61.3894 49.1191C61.1329 49.1295 60.8757 49.1212 60.619 49.1201Z" fill="#4A8780"/>
<path d="M58.981 59.7377C58.9812 59.9713 58.9868 60.2052 58.9801 60.4388C58.9647 60.9791 58.7346 61.3504 58.1495 61.3523C57.5969 61.354 57.3635 60.9908 57.3395 60.4896C57.3158 60 57.3213 59.508 57.3383 59.0179C57.3562 58.5109 57.6042 58.1402 58.1348 58.131C58.7003 58.1213 58.9626 58.4897 58.9793 59.0369C58.9866 59.2701 58.9808 59.5039 58.981 59.7377Z" fill="#4A8780"/>
<path d="M16.4847 10.7897C16.484 11.0695 16.5072 11.3515 16.4787 11.6282C16.4313 12.0882 16.1557 12.3494 15.6907 12.3488C15.2272 12.3482 14.9313 12.0902 14.9045 11.6294C14.8707 11.0485 14.812 10.4468 14.9288 9.88862C14.9909 9.59218 15.3659 9.21718 15.6627 9.14762C16.1213 9.04018 16.441 9.3848 16.481 9.88112C16.5053 10.1822 16.4855 10.4867 16.4847 10.7897Z" fill="#4A8780"/>
<path d="M9.99365 10.6817C9.99365 10.4019 9.8954 10.0646 10.0171 9.85591C10.1909 9.55834 10.5072 9.19666 10.7984 9.16178C11.0285 9.13422 11.488 9.52534 11.537 9.78822C11.6502 10.3963 11.6088 11.0413 11.5675 11.6672C11.5371 12.1297 11.2133 12.369 10.751 12.3472C10.2869 12.3255 10.0276 12.05 9.9944 11.5908C9.97265 11.2892 9.99027 10.9848 9.99027 10.6817C9.9914 10.6817 9.99252 10.6817 9.99365 10.6817Z" fill="#4A8780"/>
<path d="M55.7363 10.74C55.7365 10.437 55.6345 10.0781 55.7622 9.84505C55.9251 9.5473 56.2572 9.19124 56.5472 9.16143C56.7788 9.13762 57.2303 9.53305 57.2785 9.79799C57.3895 10.407 57.3889 11.0632 57.2794 11.6726C57.2322 11.9349 56.8317 12.2546 56.539 12.3231C56.1023 12.4252 55.7929 12.1106 55.7423 11.6479C55.7095 11.3488 55.7361 11.043 55.7363 10.74Z" fill="#4A8780"/>
<path d="M62.2228 10.738C62.2228 11.0412 62.2528 11.348 62.2159 11.6465C62.1595 12.1019 61.8548 12.425 61.4164 12.3228C61.1241 12.2547 60.7277 11.938 60.6761 11.6742C60.5619 11.0903 60.5526 10.453 60.6679 9.87083C60.7254 9.58021 61.1196 9.20989 61.4183 9.14746C61.8773 9.05146 62.1889 9.40227 62.224 9.89858C62.2435 10.177 62.2275 10.4581 62.2275 10.7378C62.2256 10.738 62.2243 10.738 62.2228 10.738Z" fill="#4A8780"/>
</svg>
