<svg width="112" height="19" viewBox="0 0 112 19" fill="none" xmlns="http://www.w3.org/2000/svg">
<path d="M18.6552 6.36043L13.1196 5.77136L10.7642 0.707233C10.6467 0.353955 10.1751 0.118164 9.82183 0.118164C9.46856 0.118164 8.99697 0.353955 8.87949 0.707233L6.52409 5.77136L0.98842 6.36043C0.517657 6.36043 0.281865 6.71371 0.0460735 7.06699C-0.0714102 7.42027 0.0460738 7.89185 0.281866 8.12682L4.40459 11.8962L3.22646 17.4319C3.10897 17.7852 3.34394 18.2567 3.69722 18.4917C3.93301 18.7267 4.1688 18.845 4.28629 18.845C4.52208 18.845 4.63957 18.845 4.75705 18.7275L9.70382 15.9006L14.533 18.7275C14.8863 18.9633 15.3579 18.9633 15.7112 18.61C16.0644 18.3742 16.1819 17.9035 16.1819 17.5502L15.0038 12.0145L19.1265 8.24513C19.4798 8.00934 19.5973 7.53857 19.3623 7.18529C19.3623 6.71371 19.009 6.47792 18.6558 6.36044L18.6552 6.36043Z" fill="#4A8780"/>
<path d="M41.6225 6.36043L36.0869 5.77136L33.7315 0.707233C33.614 0.353955 33.1424 0.118164 32.7891 0.118164C32.3184 0.118164 31.9643 0.353955 31.8468 0.707233L29.4914 5.77136L23.9557 6.36043C23.4849 6.36043 23.2492 6.71371 23.0134 7.06699C22.8959 7.42027 23.0134 7.89185 23.2492 8.12682L27.3719 11.8962L26.1937 17.4319C26.0763 17.7852 26.3112 18.2567 26.6645 18.4917C26.9003 18.6092 27.0178 18.7275 27.2536 18.7275C27.4894 18.7275 27.6069 18.7275 27.7243 18.61L32.6711 15.7831L37.5003 18.61C37.8536 18.8458 38.3252 18.8458 38.6784 18.4925C39.0317 18.2567 39.1492 17.786 39.1492 17.4327L37.9711 11.897L42.0938 8.12764C42.4471 7.89185 42.5646 7.42109 42.3296 7.06781C42.4479 6.71371 42.0946 6.47792 41.623 6.36044L41.6225 6.36043Z" fill="#4A8780"/>
<path d="M64.9428 6.47806H64.8253L59.2896 5.88899L56.9342 0.824863C56.6985 0.235793 56.3444 0 55.8736 0C55.4028 0 55.0487 0.235794 54.9312 0.589072L52.5759 5.6532L47.0402 6.24227C46.5694 6.24227 46.3336 6.59555 46.0978 6.94883C45.9803 7.30211 46.0978 7.77369 46.3336 8.00866L50.4564 11.778L49.2782 17.3137C49.1607 17.667 49.3957 18.1386 49.749 18.3736C49.9848 18.491 50.1023 18.6093 50.338 18.6093C50.5738 18.6093 50.6913 18.6093 50.8088 18.4919L55.7556 15.6649L60.5848 18.4919C60.9381 18.7277 61.4096 18.7276 61.7629 18.3744C62.1162 18.1386 62.2337 17.6678 62.2337 17.3145L61.0555 11.7789L65.2965 8.24441C65.5323 8.00862 65.6498 7.77365 65.6498 7.41955C65.6498 6.94879 65.414 6.59551 64.9432 6.47802L64.9428 6.47806Z" fill="#4A8780"/>
<path d="M87.7923 6.36043L82.2566 5.77136L79.9012 0.707233C79.7837 0.353955 79.3121 0.118164 78.9589 0.118164C78.4881 0.118164 78.134 0.353955 78.0165 0.707233L75.6611 5.77136L70.1255 6.36043C69.5364 6.36043 69.1831 6.83119 69.1831 7.42026C69.1831 7.77354 69.3006 8.00933 69.5364 8.24513L73.6591 12.0145L72.481 17.5502C72.3635 17.9035 72.5985 18.375 72.9517 18.61C73.1875 18.7275 73.305 18.8458 73.5408 18.8458C73.7766 18.8458 73.8941 18.8458 74.0116 18.7283L78.9583 15.9014L83.7875 18.7283C84.1408 18.9641 84.6124 18.9641 84.9657 18.6108C85.319 18.3751 85.4364 17.9043 85.4364 17.551L84.2583 12.0153L88.381 8.24595C88.7343 8.01016 88.8518 7.53939 88.6168 7.18612C88.6168 6.71371 88.2635 6.47792 87.7928 6.36044L87.7923 6.36043Z" fill="#4A8780"/>
<path d="M111.819 7.18496C111.702 6.83168 111.349 6.47841 110.877 6.47841L105.341 5.77185L102.986 0.707721C102.868 0.354443 102.397 0.118652 102.044 0.118652C101.573 0.118652 101.219 0.354443 101.101 0.707721L98.7458 5.77185L93.2101 6.36092C92.7393 6.36092 92.5035 6.7142 92.2678 7.06747C92.1503 7.42075 92.2678 7.89234 92.5035 8.12731L96.6263 11.8967L95.4481 17.4324C95.3307 17.7856 95.5656 18.2572 95.9189 18.4922C96.1547 18.6097 96.2722 18.728 96.508 18.728C96.7438 18.728 96.8613 18.728 96.9787 18.6105L101.926 15.7836L106.755 18.6105C107.108 18.8463 107.58 18.8463 107.933 18.493C108.286 18.2572 108.404 17.7865 108.404 17.4332L107.225 11.8975L111.348 8.12813C111.82 8.00983 111.937 7.53824 111.82 7.18497L111.819 7.18496Z" fill="#4A8780"/>
</svg>
